<?xml version="1.0" standalone="no"?>
<!DOCTYPE svg PUBLIC "-//W3C//DTD SVG 20010904//EN"
 "http://www.w3.org/TR/2001/REC-SVG-20010904/DTD/svg10.dtd">
<svg version="1.0" xmlns="http://www.w3.org/2000/svg"
 width="400.000000pt" height="400.000000pt" viewBox="0 0 400.000000 400.000000"
 preserveAspectRatio="xMidYMid meet">

<g transform="translate(0.000000,400.000000) scale(0.100000,-0.100000)"
fill="#000000" stroke="none">
<path d="M0 2443 c0 -787 4 -1365 10 -1388 8 -36 23 -55 88 -106 24 -20 11
-29 -43 -29 l-55 0 0 -460 0 -460 2000 0 2000 0 0 1609 c0 1252 -3 1610 -12
1613 -10 4 -10 13 0 45 8 27 12 122 12 282 l0 241 -1050 0 -1050 0 0 -1435 0
-1435 -105 0 c-94 0 -105 2 -103 18 3 44 -3 51 -73 78 -38 15 -72 30 -74 34
-2 3 -15 145 -30 315 -15 171 -31 327 -36 347 -10 40 -56 84 -97 95 -15 3 -38
14 -51 25 -13 10 -35 18 -48 18 -14 0 -38 9 -54 21 -16 11 -39 19 -52 16 -20
-4 -20 -4 4 -6 14 0 34 -10 44 -21 18 -20 17 -20 -352 -20 l-369 0 -26 85
c-29 96 -34 89 67 100 l60 6 12 -43 12 -44 166 -18 c91 -10 169 -16 172 -12 4
3 -11 6 -33 7 -21 0 -48 4 -59 9 -12 5 49 9 158 9 l177 1 -2 923 -3 922 -602
3 -603 2 0 -1347z m540 1013 c0 -140 -4 -257 -8 -260 -5 -3 -117 -2 -250 1
l-242 6 0 254 0 253 250 0 250 0 0 -254z m590 -1 l0 -255 -147 -2 c-82 -1
-194 -3 -250 -3 l-103 0 0 258 0 257 250 0 250 0 0 -255z m1200 155 l0 -50
-45 0 c-38 0 -45 -3 -45 -20 0 -17 5 -19 24 -14 28 7 66 -3 66 -17 0 -5 -20
-9 -45 -9 -33 0 -45 -4 -45 -15 0 -11 12 -15 45 -15 l45 0 0 -100 0 -100 -45
0 c-38 0 -45 -3 -45 -20 0 -17 5 -19 24 -14 32 8 66 -3 66 -22 0 -11 -19 -14
-90 -14 l-90 0 0 45 c0 39 3 45 25 51 14 3 34 4 45 1 16 -4 20 0 20 20 0 20
-4 23 -21 18 -11 -4 -32 -4 -47 0 -24 6 -25 8 -8 17 10 5 31 7 47 4 26 -5 29
-3 29 18 0 19 -4 23 -20 19 -11 -3 -31 -2 -45 1 -24 6 -25 9 -25 96 0 87 1 90
25 96 14 3 34 4 45 1 15 -4 20 0 20 16 0 21 -4 22 -90 19 -85 -2 -90 -1 -90
18 0 19 6 20 135 20 l135 0 0 -50z m268 29 c2 -11 -10 -19 -36 -27 -51 -16
-52 -15 -52 7 0 34 82 52 88 20z m442 -29 l0 -50 -45 0 -45 0 0 50 0 50 45 0
45 0 0 -50z m180 30 c0 -17 -7 -20 -45 -20 -38 0 -45 3 -45 20 0 17 7 20 45
20 38 0 45 -3 45 -20z m0 -150 l0 -100 -45 0 -45 0 0 100 0 100 45 0 45 0 0
-100z m178 78 c-2 -19 -10 -24 -45 -26 -40 -3 -43 -1 -43 22 0 24 3 26 46 26
41 0 45 -2 42 -22z m480 0 c-2 -19 -10 -24 -40 -26 -35 -3 -38 -1 -38 22 0 24
4 26 41 26 36 0 40 -2 37 -22z m-854 -44 c9 -3 13 -10 10 -15 -7 -12 -84 -12
-84 0 0 17 45 26 74 15z m16 -114 c0 -55 -2 -60 -24 -66 -14 -3 -34 -3 -45 1
-18 5 -21 14 -21 66 l0 59 45 0 45 0 0 -60z m-352 -22 c3 -18 -59 -45 -78 -33
-19 12 -10 33 18 43 36 14 56 10 60 -10z m-538 -13 c0 -23 -4 -25 -45 -25 -37
0 -45 3 -45 18 0 27 9 32 52 32 34 0 38 -3 38 -25z m560 -48 c0 -12 -69 -39
-81 -31 -20 12 -4 37 31 49 34 12 49 6 50 -18z m688 11 c-2 -19 -10 -24 -45
-26 -40 -3 -43 -1 -43 22 0 24 3 26 46 26 41 0 45 -2 42 -22z m480 0 c-2 -19
-10 -24 -40 -26 -35 -3 -38 -1 -38 22 0 24 4 26 41 26 36 0 40 -2 37 -22z
m-675 5 c-13 -2 -35 -2 -50 0 -16 2 -5 4 22 4 28 0 40 -2 28 -4z m-1053 -28
c0 -23 -4 -25 -45 -25 -41 0 -45 2 -45 25 0 23 4 25 45 25 41 0 45 -2 45 -25z
m1070 -65 l0 -50 -45 0 -45 0 0 50 0 50 45 0 45 0 0 -50z m180 31 c0 -23 -31
-35 -66 -27 -15 4 -24 14 -24 26 0 17 7 20 45 20 38 0 45 -3 45 -19z m478 -3
c-2 -19 -9 -23 -38 -23 -29 0 -36 4 -38 23 -3 20 1 22 38 22 37 0 41 -2 38
-22z m-840 -60 c3 -15 -4 -18 -42 -18 -32 0 -46 4 -46 13 0 22 12 28 50 25 24
-2 36 -9 38 -20z m-2498 -308 l0 -210 -40 0 c-42 0 -51 -7 -107 -74 l-22 -27
-163 3 -163 3 -3 258 -2 257 250 0 250 0 0 -210z m590 -50 l0 -260 -199 0
-199 0 -48 33 -49 34 -3 226 -2 227 250 0 250 0 0 -260z m1200 230 c0 -17 -7
-20 -45 -20 -38 0 -45 3 -45 20 0 17 7 20 45 20 38 0 45 -3 45 -20z m867 -41
c15 -5 21 -14 17 -24 -8 -19 -16 -19 -59 -1 -25 11 -33 19 -29 31 6 16 16 15
71 -6z m641 4 c-2 -13 -15 -19 -46 -21 -37 -3 -42 -1 -42 17 0 18 6 21 46 21
38 0 45 -3 42 -17z m-1508 -128 l0 -105 -45 0 -45 0 0 98 c0 54 3 102 7 105 3
4 24 7 45 7 l38 0 0 -105z m360 74 c0 -18 -5 -20 -42 -17 -31 2 -44 8 -46 21
-3 14 4 17 42 17 40 0 46 -3 46 -21z m-540 -24 c0 -23 -4 -25 -45 -25 -37 0
-45 3 -45 18 0 27 9 32 52 32 34 0 38 -3 38 -25z m1035 -11 c0 -5 -13 -46 -29
-92 -32 -88 -28 -86 -92 -61 l-22 8 29 82 c16 45 32 85 34 90 7 10 80 -15 80
-27z m213 9 c3 -21 -1 -23 -42 -23 -43 0 -46 2 -46 26 0 23 3 25 43 22 35 -2
43 -7 45 -25z m440 -75 l-3 -93 -42 -3 -43 -3 -2 43 c0 24 -2 59 -3 78 -4 63
2 70 51 70 l45 0 -3 -92z m-1330 0 c-3 -35 -21 -44 -64 -34 -19 5 -24 13 -24
36 0 29 2 30 46 30 45 0 45 0 42 -32z m2 -68 c0 -5 -18 -10 -39 -10 -22 0 -43
5 -46 10 -4 6 12 10 39 10 25 0 46 -4 46 -10z m0 -75 l0 -45 -45 0 -45 0 0 38
c0 48 4 52 52 52 l38 0 0 -45z m-180 15 c0 -5 -20 -10 -45 -10 -25 0 -45 5
-45 10 0 6 20 10 45 10 25 0 45 -4 45 -10z m358 -7 c-6 -31 -88 -29 -88 2 0
11 12 15 46 15 38 0 45 -3 42 -17z m398 1 c21 -5 35 -24 18 -24 -23 0 -82 25
-78 32 3 5 13 7 21 4 8 -4 26 -9 39 -12z m-938 -21 c3 -21 -1 -23 -42 -23 -39
0 -46 3 -46 19 0 23 15 31 55 28 23 -2 31 -7 33 -24z m1250 0 c3 -21 -1 -23
-42 -23 -38 0 -46 3 -46 18 0 27 10 33 50 30 28 -2 36 -8 38 -25z m437 7 c-3
-5 -24 -10 -46 -10 -21 0 -39 5 -39 10 0 6 21 10 46 10 27 0 43 -4 39 -10z
m-1145 -40 c0 -17 -7 -20 -45 -20 -38 0 -45 3 -45 20 0 17 7 20 45 20 38 0 45
-3 45 -20z m393 -9 c7 -7 -9 -69 -23 -85 -5 -4 -25 -3 -45 4 -39 13 -40 19
-15 84 9 23 12 24 42 14 18 -6 36 -14 41 -17z m-769 13 c12 -4 16 -20 16 -55
l0 -49 -45 0 -45 0 0 49 c0 30 5 51 13 54 18 8 43 8 61 1z m-166 -26 c-5 -39
-88 -36 -88 2 0 17 7 20 46 20 41 0 45 -2 42 -22z m1242 2 c0 -25 -21 -34 -55
-26 -16 4 -25 13 -25 26 0 17 7 20 40 20 34 0 40 -3 40 -20z m434 14 c11 -4
16 -19 16 -49 0 -43 -10 -55 -48 -55 -27 0 -39 13 -46 46 -11 49 28 77 78 58z
m-330 -75 c30 -14 41 -53 32 -114 -9 -54 8 -68 24 -20 8 24 18 35 31 35 28 0
34 -26 17 -64 -19 -39 -5 -66 36 -66 14 0 26 -2 26 -5 0 -3 -11 -37 -24 -77
-13 -40 -51 -164 -83 -275 l-58 -203 -244 0 -243 0 -69 32 c-38 17 -69 35 -69
40 0 4 -13 8 -28 8 -44 0 -92 62 -92 117 l1 28 32 -38 c18 -20 38 -37 45 -37
14 0 -1 19 -115 147 l-62 69 54 27 54 26 83 -95 c46 -53 82 -100 80 -105 -1
-5 4 -9 12 -9 8 0 24 -12 35 -26 19 -24 19 -28 6 -38 -12 -9 6 -19 95 -53 61
-22 110 -38 108 -33 -2 4 -31 37 -65 74 -49 51 -69 66 -91 66 -15 0 -37 6 -48
14 -18 14 -18 15 11 48 16 18 33 37 37 42 5 6 20 -1 35 -16 29 -28 183 -131
188 -126 1 2 26 46 55 99 47 84 60 100 112 133 32 21 55 42 52 47 -3 5 0 9 5
9 6 0 11 20 11 46 0 43 -1 45 -22 38 -53 -17 -63 -12 -66 36 -2 25 -10 48 -17
53 -12 6 -12 13 0 41 8 18 12 36 9 39 -11 11 17 86 34 90 31 8 51 7 76 -4z
m-984 -9 c0 -5 -20 -10 -45 -10 -25 0 -45 5 -45 10 0 6 20 10 45 10 25 0 45
-4 45 -10z m-1845 -57 c34 -16 36 -20 31 -53 -3 -19 -9 -56 -12 -82 -4 -32
-11 -48 -21 -48 -8 0 -21 -17 -30 -37 -19 -47 -33 -56 -54 -37 -22 20 -29 18
-29 -12 0 -14 -3 -24 -8 -22 -39 17 -104 38 -134 43 l-38 6 0 50 c0 48 1 50
23 44 29 -9 29 -9 49 -1 14 7 17 16 12 45 -7 41 11 66 40 55 11 -4 16 -18 16
-46 0 -35 2 -39 15 -28 8 7 15 20 15 29 1 36 38 99 62 104 12 2 24 5 25 6 1 0
19 -7 38 -16z m-305 -83 c0 -27 -2 -50 -5 -50 -3 0 -19 10 -36 23 -25 18 -48
23 -126 27 -88 5 -96 7 -104 28 l-8 22 139 0 140 0 0 -50z m770 -210 l0 -260
-182 2 -183 3 -38 70 c-21 39 -51 87 -67 107 -20 25 -30 48 -30 71 0 48 18 95
40 102 12 4 20 20 24 48 4 23 9 59 12 80 l6 37 209 0 209 0 0 -260z m1358 158
c3 -43 1 -48 -22 -54 -13 -3 -34 -3 -45 1 -18 5 -21 15 -21 56 l0 50 43 -3 42
-3 3 -47z m172 32 c0 -17 -7 -20 -45 -20 -31 0 -45 4 -45 13 0 21 11 27 52 27
31 0 38 -3 38 -20z m-295 -2 c48 -22 23 -46 -30 -28 -23 8 -32 16 -28 26 6 17
24 18 58 2z m995 -18 c8 -5 11 -10 5 -10 -5 0 -17 5 -25 10 -8 5 -10 10 -5 10
6 0 17 -5 25 -10z m-1210 -60 c0 -17 -7 -20 -45 -20 -38 0 -45 3 -45 20 0 17
7 20 45 20 38 0 45 -3 45 -20z m204 0 c8 -8 -36 -153 -54 -173 -9 -10 -70 12
-70 26 0 7 12 47 26 90 l26 79 31 -6 c17 -4 36 -11 41 -16z m308 3 c5 -64 5
-81 1 -105 -4 -24 -57 -68 -83 -68 -5 0 -8 43 -7 95 l2 95 43 0 c33 0 42 -4
44 -17z m428 -3 c0 -17 -7 -20 -40 -20 -33 0 -40 3 -40 20 0 17 7 20 40 20 33
0 40 -3 40 -20z m268 11 c21 -13 17 -69 -8 -134 -21 -55 -24 -58 -49 -52 -49
12 -51 23 -18 113 30 82 42 94 75 73z m-868 -61 c0 -5 -20 -10 -45 -10 -25 0
-45 5 -45 10 0 6 20 10 45 10 25 0 45 -4 45 -10z m0 -110 l0 -60 -45 0 -45 0
0 60 0 60 45 0 45 0 0 -60z m-205 -61 c14 -13 -30 -11 -59 2 -14 7 -23 15 -20
20 5 8 63 -8 79 -22z m984 20 c29 -10 43 -29 21 -29 -16 0 -60 23 -60 32 0 10
1 10 39 -3z m-1119 -29 c0 -17 -7 -20 -45 -20 -38 0 -45 3 -45 20 0 17 7 20
45 20 38 0 45 -3 45 -20z m485 10 c4 -6 -6 -10 -24 -10 -16 0 -33 5 -36 10 -4
6 6 10 24 10 16 0 33 -4 36 -10z m455 -12 c0 -16 -3 -19 -11 -11 -6 6 -8 16
-5 22 11 17 16 13 16 -11z m-101 -15 c-13 -16 -28 -32 -33 -38 -5 -6 -6 2 -1
20 7 31 20 45 44 45 10 0 7 -8 -10 -27z m-736 -22 c11 -11 -13 -91 -27 -90 -6
0 -25 6 -42 12 l-31 12 18 44 c18 39 21 43 47 36 15 -3 31 -10 35 -14z m1007
9 c12 -8 12 -13 -3 -44 -18 -39 -25 -42 -50 -23 -15 10 -16 17 -6 45 11 32 31
40 59 22z m-1112 -27 c3 -21 -1 -23 -42 -23 -39 0 -46 3 -46 19 0 23 15 31 55
28 23 -2 31 -7 33 -24z m516 1 c4 -9 4 -32 0 -50 -6 -33 -8 -34 -51 -34 l-45
0 6 31 c3 17 6 40 6 50 0 15 8 19 39 19 27 0 41 -5 45 -16z m-174 -64 c0 -17
-7 -20 -45 -20 -38 0 -45 3 -45 20 0 17 7 20 45 20 38 0 45 -3 45 -20z m-1170
-978 c0 -11 9 -29 20 -42 11 -13 20 -37 20 -57 l0 -33 -65 0 c-36 0 -65 4 -65
10 0 5 16 25 35 44 25 25 35 44 35 66 0 16 5 30 10 30 6 0 10 -8 10 -18z m280
-44 c119 -49 108 -58 -70 -58 l-150 0 0 35 c0 28 4 36 23 39 12 3 31 7 42 9
48 11 80 5 155 -25z m1011 21 l69 -12 0 -33 0 -34 -156 0 c-180 0 -189 7 -73
57 88 38 74 36 160 22z m-1553 -91 c3 -17 -21 -18 -387 -18 -319 0 -391 2
-391 13 0 8 3 17 7 20 4 4 178 6 387 5 353 -3 381 -4 384 -20z"/>
<path d="M998 1903 c12 -2 32 -2 45 0 12 2 2 4 -23 4 -25 0 -35 -2 -22 -4z"/>
<path d="M1088 1893 c12 -2 32 -2 45 0 12 2 2 4 -23 4 -25 0 -35 -2 -22 -4z"/>
</g>
</svg>
